<svg xmlns="http://www.w3.org/2000/svg" viewBox="0 0 1800 900">
  <defs>
    <linearGradient id="sky" x1="0" x2="0" y1="0" y2="1">
      <stop offset="0%" stop-color="#e7ece6"/>
      <stop offset="50%" stop-color="#b8c0b8"/>
      <stop offset="100%" stop-color="#7a877e"/>
    </linearGradient>
    <linearGradient id="water" x1="0" x2="0" y1="0" y2="1">
      <stop offset="0%" stop-color="#61716e"/>
      <stop offset="100%" stop-color="#33433f"/>
    </linearGradient>
  </defs>
  <rect width="1800" height="900" fill="url(#sky)"/>
  <path d="M0 280 C180 170 330 210 520 120 C710 30 860 120 1060 90 C1260 62 1420 120 1610 80 C1700 62 1765 55 1800 44 L1800 470 L0 470 Z" fill="#8f968f"/>
  <path d="M0 330 C220 230 380 270 580 180 C760 100 950 190 1140 155 C1330 120 1510 180 1800 118 L1800 500 L0 500 Z" fill="#677169"/>
  <rect y="470" width="1800" height="430" fill="url(#water)"/>
  <g opacity="0.18" stroke="#ffffff">
    <line x1="0" y1="560" x2="1800" y2="560"/><line x1="0" y1="610" x2="1800" y2="610"/><line x1="0" y1="660" x2="1800" y2="660"/><line x1="0" y1="710" x2="1800" y2="710"/>
  </g>
  <g>
    <path d="M780 900 L1020 900 L930 710 L870 710 Z" fill="#806345"/>
    <path d="M890 710 C900 630 912 600 930 600 C948 600 960 630 970 710 Z" fill="#614c3c"/>
    <circle cx="930" cy="555" r="28" fill="#493f3a"/>
    <path d="M895 710 C903 650 916 615 930 585 C944 615 957 650 965 710 Z" fill="#e9e1d8"/>
  </g>
  <circle cx="1480" cy="110" r="80" fill="#f3ecd5" opacity="0.5"/>
</svg>
